<svg width="1188" height="526" viewBox="0 0 1188 526" fill="none" xmlns="http://www.w3.org/2000/svg">
<path d="M349.104 104.71C488.237 -34.4231 713.819 -34.4232 852.952 104.71L892.173 143.931V15.0781H993.459V214.168H1187.85V315.453H1063.7L1187.85 439.604L1115.87 511.58L993.459 389.174V514.544H892.173V315.453H688.38V214.168H818.453L780.972 176.687C681.591 77.3071 520.465 77.3069 421.084 176.687L383.603 214.168H500.012V315.453H300.921V514.544H199.636V398.135L72.1309 525.64L0.154297 453.66L138.361 315.453H0.545898V214.168H199.636V15.0781H300.921V152.893L349.104 104.71Z" fill="white"/>
</svg>
